<svg width="1440" height="704" viewBox="0 0 1440 704" fill="none" xmlns="http://www.w3.org/2000/svg">
<mask id="mask0" mask-type="alpha" maskUnits="userSpaceOnUse" x="0" y="0" width="1440" height="704">
<path d="M1440 0H0V704H1440V0Z" fill="#0D3376"/>
</mask>
<g mask="url(#mask0)">
<path d="M623.423 524.053C634.15 581.606 689.5 619.567 747.051 608.84C804.603 598.114 842.561 542.762 831.835 485.209C821.108 427.655 765.757 389.695 708.206 400.421C650.654 411.148 612.696 466.5 623.423 524.053Z" fill="#093065"/>
<path d="M786.394 629.582C808.435 647.173 840.562 643.565 858.151 621.525C875.741 599.485 872.133 567.358 850.092 549.768C828.051 532.178 795.924 535.785 778.334 557.825C760.744 579.865 764.353 611.992 786.394 629.582Z" fill="#0E409B"/>
<path d="M1488.28 284.147C1375.65 153.188 1178.2 138.319 1047.24 250.936C916.289 363.553 901.427 561.011 1014.05 691.97C1126.67 822.929 1324.13 837.798 1455.08 725.181C1586.03 612.563 1600.9 415.106 1488.28 284.147Z" fill="#0D3989"/>
<path d="M419.921 32.8024C393.455 154.196 470.405 274.059 591.795 300.524C713.184 326.989 833.044 250.035 859.51 128.641C885.977 7.24778 809.026 -112.615 687.637 -139.081C566.248 -165.546 446.387 -88.5911 419.921 32.8024Z" fill="#0E409B"/>
<path d="M495.379 421.582C630.588 291.551 635.752 77.5382 506.914 -56.4297C378.076 -190.398 164.025 -193.589 28.8163 -63.5585C-106.392 66.4722 -111.556 280.485 17.2814 414.453C146.119 548.421 360.171 551.613 495.379 421.582Z" fill="#093065"/>
<path d="M185.547 525.263C184.693 598.863 243.662 659.22 317.259 660.074C390.856 660.929 451.21 601.958 452.065 528.358C452.92 454.759 393.951 394.402 320.354 393.547C246.757 392.693 186.402 451.664 185.547 525.263Z" fill="#0E409B"/>
<path d="M977.283 151.287C1006.16 174.331 1048.25 169.606 1071.29 140.732C1094.33 111.858 1089.61 69.7699 1060.73 46.7255C1031.86 23.6812 989.768 28.4068 966.724 57.2807C943.681 86.1545 948.408 128.243 977.283 151.287Z" fill="#093065"/>
</g>
</svg>
